<svg width="120" height="120" viewBox="0 0 120 120" fill="none" xmlns="http://www.w3.org/2000/svg">
<g clip-path="url(#clip0_126_1396)">
<path d="M107.559 15.6288H100.026V9.65853C100.026 7.93933 98.6194 6.53271 96.9002 6.53271C95.181 6.53271 93.7744 7.93933 93.7744 9.65853V15.6288H63.1414V9.65853C63.1414 7.93933 61.7348 6.53271 60.0156 6.53271C58.2964 6.53271 56.8898 7.93933 56.8898 9.65853V15.6288H25.9443V9.65853C25.9443 7.93933 24.5376 6.53271 22.8184 6.53271C21.0992 6.53271 19.6926 7.93933 19.6926 9.65853V15.6288H12.472C5.59521 15.6288 0 21.4116 0 28.2884V100.964C0 107.872 5.56395 113.467 12.472 113.467H107.528C114.436 113.467 120 107.872 120 100.995V28.2884C120.031 21.4116 114.436 15.6288 107.559 15.6288ZM113.78 100.964C113.78 104.402 111.029 107.184 107.591 107.215H107.559H12.472C9.0336 107.215 6.25163 104.433 6.25163 100.995V100.964V28.2884C6.25163 24.8187 9.0336 21.8805 12.472 21.8805H19.6926V26.4129C19.6926 28.1321 21.0992 29.5387 22.8184 29.5387C24.5376 29.5387 25.9443 28.1321 25.9443 26.4129V21.8805H56.8898V26.4129C56.8898 28.1321 58.2964 29.5387 60.0156 29.5387C61.7348 29.5387 63.1414 28.1321 63.1414 26.4129V21.8805H93.7744V26.4129C93.7744 28.1321 95.181 29.5387 96.9002 29.5387C98.6194 29.5387 100.026 28.1321 100.026 26.4129V21.8805H107.559C111.029 21.8805 113.78 24.85 113.78 28.2884V100.964Z" fill="#BDBDBD"/>
<path d="M51.7952 42.1982H46.325C44.6058 42.1982 43.1992 43.6049 43.1992 45.3241C43.1992 47.0433 44.6058 48.4499 46.325 48.4499H51.7952C53.5144 48.4499 54.921 47.0433 54.921 45.3241C54.921 43.6049 53.5144 42.1982 51.7952 42.1982Z" fill="url(#paint0_linear_126_1396)"/>
<path d="M73.5491 42.1982H68.0789C66.3597 42.1982 64.9531 43.6049 64.9531 45.3241C64.9531 47.0433 66.3597 48.4499 68.0789 48.4499H73.5491C75.2683 48.4499 76.6749 47.0433 76.6749 45.3241C76.6749 43.6049 75.2996 42.1982 73.5491 42.1982Z" fill="url(#paint1_linear_126_1396)"/>
<path d="M95.4944 42.1982H90.0243C88.3051 42.1982 86.8984 43.6049 86.8984 45.3241C86.8984 47.0433 88.3051 48.4499 90.0243 48.4499H95.4944C97.2136 48.4499 98.6202 47.0433 98.6202 45.3241C98.6202 43.6049 97.2136 42.1982 95.4944 42.1982Z" fill="url(#paint2_linear_126_1396)"/>
<path d="M51.7952 63.7666H46.325C44.6058 63.7666 43.1992 65.1732 43.1992 66.8924C43.1992 68.6116 44.6058 70.0182 46.325 70.0182H51.7952C53.5144 70.0182 54.921 68.6116 54.921 66.8924C54.921 65.1732 53.5144 63.7666 51.7952 63.7666Z" fill="url(#paint3_linear_126_1396)"/>
<path d="M29.8851 63.7666H24.3836C22.6644 63.7666 21.2578 65.1732 21.2578 66.8924C21.2578 68.6116 22.6644 70.0182 24.3836 70.0182H29.8538C31.573 70.0182 32.9796 68.6116 32.9796 66.8924C32.9796 65.1732 31.6043 63.7666 29.8851 63.7666Z" fill="url(#paint4_linear_126_1396)"/>
<path d="M73.5491 63.7666H68.0789C66.3597 63.7666 64.9531 65.1732 64.9531 66.8924C64.9531 68.6116 66.3597 70.0182 68.0789 70.0182H73.5491C75.2683 70.0182 76.6749 68.6116 76.6749 66.8924C76.6749 65.1732 75.2996 63.7666 73.5491 63.7666Z" fill="url(#paint5_linear_126_1396)"/>
<path d="M95.4944 63.7666H90.0243C88.3051 63.7666 86.8984 65.1732 86.8984 66.8924C86.8984 68.6116 88.3051 70.0182 90.0243 70.0182H95.4944C97.2136 70.0182 98.6202 68.6116 98.6202 66.8924C98.6202 65.1732 97.2136 63.7666 95.4944 63.7666Z" fill="url(#paint6_linear_126_1396)"/>
<path d="M51.7952 85.022H46.325C44.6058 85.022 43.1992 86.4286 43.1992 88.1478C43.1992 89.867 44.6058 91.2736 46.325 91.2736H51.7952C53.5144 91.2736 54.921 89.867 54.921 88.1478C54.921 86.4286 53.5144 85.022 51.7952 85.022Z" fill="url(#paint7_linear_126_1396)"/>
<path d="M29.8851 85.022H24.3836C22.6644 85.022 21.2578 86.4286 21.2578 88.1478C21.2578 89.867 22.6644 91.2736 24.3836 91.2736H29.8538C31.573 91.2736 32.9796 89.867 32.9796 88.1478C32.9796 86.4286 31.6043 85.022 29.8851 85.022Z" fill="url(#paint8_linear_126_1396)"/>
<path d="M73.5491 85.022H68.0789C66.3597 85.022 64.9531 86.4286 64.9531 88.1478C64.9531 89.867 66.3597 91.2736 68.0789 91.2736H73.5491C75.2683 91.2736 76.6749 89.867 76.6749 88.1478C76.6749 86.4286 75.2996 85.022 73.5491 85.022Z" fill="url(#paint9_linear_126_1396)"/>
</g>
<defs>
<linearGradient id="paint0_linear_126_1396" x1="49.0601" y1="42.1982" x2="49.0601" y2="48.4499" gradientUnits="userSpaceOnUse">
<stop stop-color="#543A83"/>
<stop offset="1" stop-color="#7F62B2"/>
</linearGradient>
<linearGradient id="paint1_linear_126_1396" x1="70.814" y1="42.1982" x2="70.814" y2="48.4499" gradientUnits="userSpaceOnUse">
<stop stop-color="#543A83"/>
<stop offset="1" stop-color="#7F62B2"/>
</linearGradient>
<linearGradient id="paint2_linear_126_1396" x1="92.7593" y1="42.1982" x2="92.7593" y2="48.4499" gradientUnits="userSpaceOnUse">
<stop stop-color="#543A83"/>
<stop offset="1" stop-color="#7F62B2"/>
</linearGradient>
<linearGradient id="paint3_linear_126_1396" x1="49.0601" y1="63.7666" x2="49.0601" y2="70.0182" gradientUnits="userSpaceOnUse">
<stop stop-color="#543A83"/>
<stop offset="1" stop-color="#7F62B2"/>
</linearGradient>
<linearGradient id="paint4_linear_126_1396" x1="27.1187" y1="63.7666" x2="27.1187" y2="70.0182" gradientUnits="userSpaceOnUse">
<stop stop-color="#543A83"/>
<stop offset="1" stop-color="#7F62B2"/>
</linearGradient>
<linearGradient id="paint5_linear_126_1396" x1="70.814" y1="63.7666" x2="70.814" y2="70.0182" gradientUnits="userSpaceOnUse">
<stop stop-color="#543A83"/>
<stop offset="1" stop-color="#7F62B2"/>
</linearGradient>
<linearGradient id="paint6_linear_126_1396" x1="92.7593" y1="63.7666" x2="92.7593" y2="70.0182" gradientUnits="userSpaceOnUse">
<stop stop-color="#543A83"/>
<stop offset="1" stop-color="#7F62B2"/>
</linearGradient>
<linearGradient id="paint7_linear_126_1396" x1="49.0601" y1="85.022" x2="49.0601" y2="91.2736" gradientUnits="userSpaceOnUse">
<stop stop-color="#543A83"/>
<stop offset="1" stop-color="#7F62B2"/>
</linearGradient>
<linearGradient id="paint8_linear_126_1396" x1="27.1187" y1="85.022" x2="27.1187" y2="91.2736" gradientUnits="userSpaceOnUse">
<stop stop-color="#543A83"/>
<stop offset="1" stop-color="#7F62B2"/>
</linearGradient>
<linearGradient id="paint9_linear_126_1396" x1="70.814" y1="85.022" x2="70.814" y2="91.2736" gradientUnits="userSpaceOnUse">
<stop stop-color="#543A83"/>
<stop offset="1" stop-color="#7F62B2"/>
</linearGradient>
<clipPath id="clip0_126_1396">
<rect width="120" height="120" fill="white"/>
</clipPath>
</defs>
</svg>
