<svg width="108" height="100" viewBox="0 0 108 100" fill="none" xmlns="http://www.w3.org/2000/svg">
<circle cx="53.5325" cy="95.4505" r="4.50124" fill="url(#paint0_linear_126_187)"/>
<circle cx="53.5325" cy="71.7171" r="4.50124" fill="url(#paint1_linear_126_187)"/>
<circle cx="53.5325" cy="52.075" r="4.50124" fill="url(#paint2_linear_126_187)"/>
<circle cx="53.5325" cy="28.3411" r="4.50124" fill="url(#paint3_linear_126_187)"/>
<circle cx="53.5325" cy="4.60768" r="4.50124" fill="url(#paint4_linear_126_187)"/>
<circle cx="32.2551" cy="9.51784" r="4.50124" fill="url(#paint5_linear_126_187)"/>
<circle r="4.50124" transform="matrix(-1 0 0 1 76.448 9.51784)" fill="url(#paint6_linear_126_187)"/>
<circle cx="32.2551" cy="30.7962" r="4.50124" fill="url(#paint7_linear_126_187)"/>
<circle r="4.50124" transform="matrix(-1 0 0 1 76.448 30.7962)" fill="url(#paint8_linear_126_187)"/>
<circle cx="29.8001" cy="52.075" r="4.50124" fill="url(#paint9_linear_126_187)"/>
<circle r="4.50124" transform="matrix(-1 0 0 1 78.905 52.075)" fill="url(#paint10_linear_126_187)"/>
<circle cx="32.2551" cy="73.3538" r="4.50124" fill="url(#paint11_linear_126_187)"/>
<circle r="4.50124" transform="matrix(-1 0 0 1 76.448 73.3538)" fill="url(#paint12_linear_126_187)"/>
<circle cx="32.2551" cy="90.5403" r="4.50124" fill="url(#paint13_linear_126_187)"/>
<circle r="4.50124" transform="matrix(-1 0 0 1 76.448 90.5403)" fill="url(#paint14_linear_126_187)"/>
<circle cx="10.1575" cy="73.3535" r="4.50124" fill="url(#paint15_linear_126_187)"/>
<circle r="4.50124" transform="matrix(-1 0 0 1 98.5456 73.3535)" fill="url(#paint16_linear_126_187)"/>
<circle cx="5.24733" cy="52.075" r="4.50124" fill="url(#paint17_linear_126_187)"/>
<circle r="4.50124" transform="matrix(-1 0 0 1 103.456 52.075)" fill="url(#paint18_linear_126_187)"/>
<circle cx="10.1575" cy="30.7964" r="4.50124" fill="url(#paint19_linear_126_187)"/>
<circle r="4.50124" transform="matrix(-1 0 0 1 98.5456 30.7964)" fill="url(#paint20_linear_126_187)"/>
<defs>
<linearGradient id="paint0_linear_126_187" x1="53.5325" y1="90.9492" x2="53.5325" y2="99.9517" gradientUnits="userSpaceOnUse">
<stop stop-color="#543A83"/>
<stop offset="1" stop-color="#7F62B2"/>
</linearGradient>
<linearGradient id="paint1_linear_126_187" x1="53.5325" y1="67.2158" x2="53.5325" y2="76.2183" gradientUnits="userSpaceOnUse">
<stop stop-color="#543A83"/>
<stop offset="1" stop-color="#7F62B2"/>
</linearGradient>
<linearGradient id="paint2_linear_126_187" x1="53.5325" y1="47.5737" x2="53.5325" y2="56.5762" gradientUnits="userSpaceOnUse">
<stop stop-color="#543A83"/>
<stop offset="1" stop-color="#7F62B2"/>
</linearGradient>
<linearGradient id="paint3_linear_126_187" x1="53.5325" y1="23.8398" x2="53.5325" y2="32.8423" gradientUnits="userSpaceOnUse">
<stop stop-color="#543A83"/>
<stop offset="1" stop-color="#7F62B2"/>
</linearGradient>
<linearGradient id="paint4_linear_126_187" x1="53.5325" y1="0.106445" x2="53.5325" y2="9.10892" gradientUnits="userSpaceOnUse">
<stop stop-color="#543A83"/>
<stop offset="1" stop-color="#7F62B2"/>
</linearGradient>
<linearGradient id="paint5_linear_126_187" x1="32.2551" y1="5.0166" x2="32.2551" y2="14.0191" gradientUnits="userSpaceOnUse">
<stop stop-color="#543A83"/>
<stop offset="1" stop-color="#7F62B2"/>
</linearGradient>
<linearGradient id="paint6_linear_126_187" x1="4.50124" y1="0" x2="4.50124" y2="9.00247" gradientUnits="userSpaceOnUse">
<stop stop-color="#543A83"/>
<stop offset="1" stop-color="#7F62B2"/>
</linearGradient>
<linearGradient id="paint7_linear_126_187" x1="32.2551" y1="26.2949" x2="32.2551" y2="35.2974" gradientUnits="userSpaceOnUse">
<stop stop-color="#543A83"/>
<stop offset="1" stop-color="#7F62B2"/>
</linearGradient>
<linearGradient id="paint8_linear_126_187" x1="4.50124" y1="0" x2="4.50124" y2="9.00247" gradientUnits="userSpaceOnUse">
<stop stop-color="#543A83"/>
<stop offset="1" stop-color="#7F62B2"/>
</linearGradient>
<linearGradient id="paint9_linear_126_187" x1="29.8001" y1="47.5737" x2="29.8001" y2="56.5762" gradientUnits="userSpaceOnUse">
<stop stop-color="#543A83"/>
<stop offset="1" stop-color="#7F62B2"/>
</linearGradient>
<linearGradient id="paint10_linear_126_187" x1="4.50124" y1="0" x2="4.50124" y2="9.00247" gradientUnits="userSpaceOnUse">
<stop stop-color="#543A83"/>
<stop offset="1" stop-color="#7F62B2"/>
</linearGradient>
<linearGradient id="paint11_linear_126_187" x1="32.2551" y1="68.8525" x2="32.2551" y2="77.855" gradientUnits="userSpaceOnUse">
<stop stop-color="#543A83"/>
<stop offset="1" stop-color="#7F62B2"/>
</linearGradient>
<linearGradient id="paint12_linear_126_187" x1="4.50124" y1="0" x2="4.50124" y2="9.00247" gradientUnits="userSpaceOnUse">
<stop stop-color="#543A83"/>
<stop offset="1" stop-color="#7F62B2"/>
</linearGradient>
<linearGradient id="paint13_linear_126_187" x1="32.2551" y1="86.0391" x2="32.2551" y2="95.0415" gradientUnits="userSpaceOnUse">
<stop stop-color="#543A83"/>
<stop offset="1" stop-color="#7F62B2"/>
</linearGradient>
<linearGradient id="paint14_linear_126_187" x1="4.50124" y1="0" x2="4.50124" y2="9.00247" gradientUnits="userSpaceOnUse">
<stop stop-color="#543A83"/>
<stop offset="1" stop-color="#7F62B2"/>
</linearGradient>
<linearGradient id="paint15_linear_126_187" x1="10.1575" y1="68.8523" x2="10.1575" y2="77.8548" gradientUnits="userSpaceOnUse">
<stop stop-color="#543A83"/>
<stop offset="1" stop-color="#7F62B2"/>
</linearGradient>
<linearGradient id="paint16_linear_126_187" x1="4.50124" y1="0" x2="4.50124" y2="9.00247" gradientUnits="userSpaceOnUse">
<stop stop-color="#543A83"/>
<stop offset="1" stop-color="#7F62B2"/>
</linearGradient>
<linearGradient id="paint17_linear_126_187" x1="5.24733" y1="47.5737" x2="5.24733" y2="56.5762" gradientUnits="userSpaceOnUse">
<stop stop-color="#543A83"/>
<stop offset="1" stop-color="#7F62B2"/>
</linearGradient>
<linearGradient id="paint18_linear_126_187" x1="4.50124" y1="0" x2="4.50124" y2="9.00247" gradientUnits="userSpaceOnUse">
<stop stop-color="#543A83"/>
<stop offset="1" stop-color="#7F62B2"/>
</linearGradient>
<linearGradient id="paint19_linear_126_187" x1="10.1575" y1="26.2952" x2="10.1575" y2="35.2976" gradientUnits="userSpaceOnUse">
<stop stop-color="#543A83"/>
<stop offset="1" stop-color="#7F62B2"/>
</linearGradient>
<linearGradient id="paint20_linear_126_187" x1="4.50124" y1="0" x2="4.50124" y2="9.00247" gradientUnits="userSpaceOnUse">
<stop stop-color="#543A83"/>
<stop offset="1" stop-color="#7F62B2"/>
</linearGradient>
</defs>
</svg>
