<svg width="222" height="35" viewBox="0 0 222 35" fill="none" xmlns="http://www.w3.org/2000/svg">
<g clip-path="url(#clip0_126_22)">
<path fill-rule="evenodd" clip-rule="evenodd" d="M0 0.387329H9.48302V13.4579H25.5312V0.629376H35.0142V35.0001H25.5312V20.7193H9.48302V35.0001H0V0.387329Z" fill="white"/>
<path fill-rule="evenodd" clip-rule="evenodd" d="M86.5621 11.4005V34.758H77.3223V0.145264H90.5012L103.097 23.7448V0.145264H112.58V34.758H99.2062L86.5621 11.4005Z" fill="white"/>
<path fill-rule="evenodd" clip-rule="evenodd" d="M195.982 11.4005V34.758H186.742V0.145264H199.945L212.517 23.7448V0.145264H222V34.758H208.65L195.982 11.4005Z" fill="white"/>
<path fill-rule="evenodd" clip-rule="evenodd" d="M116.227 0.387311V35H125.466V18.7587L139.618 35H149.685L134.463 17.5726L149.636 0.193673L139.569 0.145264L125.685 16.2656L125.758 0.387311H116.227Z" fill="white"/>
<path d="M56.1677 34.7579C53.9307 34.7579 51.6694 34.8063 49.4323 34.7579C47.244 34.7095 45.3473 33.8865 43.548 32.6763C42.0648 31.6839 40.8733 30.4737 39.9493 28.973C39.1712 27.6901 38.539 26.3105 38.3202 24.7614C37.7123 20.2351 38.0527 15.7088 38.1257 11.2067C38.15 9.07672 39.0983 7.06773 40.387 5.27658C41.5055 3.72748 42.8915 2.51725 44.5206 1.62168C45.4203 1.11338 46.4415 0.82292 47.4385 0.484054C49.3594 -0.193678 51.3776 0.0725741 53.3714 0.0483694C56.7999 0.0483694 60.2041 0.0241647 63.6082 0.193598C65.4319 0.290416 67.134 1.08917 68.6659 2.10577C70.0032 3.00134 71.1703 4.09055 72.0214 5.39761C72.6779 6.39 73.2128 7.47921 73.6262 8.59263C74.4043 10.7226 74.38 12.9737 74.38 15.2247C74.3557 17.4031 74.4286 19.6058 74.3557 21.7842C74.2827 23.8416 74.0153 25.899 73.067 27.7628C71.9971 29.8444 70.5138 31.5871 68.4956 32.8457C66.5504 34.0802 64.4593 34.7579 62.125 34.7337C60.1555 34.7095 58.1616 34.7337 56.192 34.7337C56.1677 34.7579 56.1677 34.7579 56.1677 34.7579ZM65.748 17.4515C65.748 15.7814 65.7966 14.0871 65.7237 12.417C65.6994 11.6666 65.5535 10.8921 65.286 10.1901C64.4836 8.08433 62.2952 6.55943 60.0339 6.55943C57.4564 6.55943 54.8547 6.51102 52.2772 6.58364C51.4019 6.60784 50.4536 6.80148 49.6998 7.21296C47.5601 8.37479 46.4659 10.3112 46.4172 12.7074C46.3443 15.6604 46.4172 18.6376 46.3929 21.6148C46.3929 23.1397 46.709 24.5919 47.6087 25.8506C48.6299 27.2303 49.943 28.1742 51.7423 28.1984C54.4656 28.2226 57.2133 28.1984 59.9366 28.2226C61.1038 28.2226 62.1736 28.0048 63.1706 27.2787C64.6781 26.1652 65.6994 24.7856 65.7237 22.8492C65.7723 21.0581 65.748 19.2669 65.748 17.4515Z" fill="white"/>
<path d="M165.418 34.7579C163.181 34.7579 160.919 34.8063 158.682 34.7579C156.494 34.7095 154.597 33.8865 152.798 32.6763C151.315 31.6839 150.123 30.4737 149.199 28.973C148.421 27.6901 147.789 26.3105 147.57 24.7614C146.962 20.2351 147.303 15.7088 147.376 11.2067C147.4 9.07672 148.348 7.06773 149.637 5.27658C150.756 3.72748 152.141 2.51725 153.771 1.62168C154.67 1.11338 155.692 0.82292 156.688 0.484054C158.609 -0.193678 160.628 0.0725741 162.621 0.0483694C166.05 0.0483694 169.454 0.0241647 172.858 0.193598C174.682 0.290416 176.384 1.08917 177.916 2.10577C179.253 3.00134 180.42 4.09055 181.271 5.39761C181.928 6.39 182.463 7.47921 182.876 8.59263C183.654 10.7226 183.63 12.9737 183.63 15.2247C183.606 17.4031 183.679 19.6058 183.606 21.7842C183.533 23.8416 183.265 25.899 182.317 27.7628C181.247 29.8444 179.764 31.5871 177.746 32.8457C175.8 34.0802 173.709 34.7579 171.375 34.7337C169.405 34.7095 167.412 34.7337 165.442 34.7337C165.418 34.7579 165.418 34.7579 165.418 34.7579ZM174.998 17.4515C174.998 15.7814 175.047 14.0871 174.974 12.417C174.949 11.6666 174.803 10.8921 174.536 10.1901C173.734 8.08433 171.545 6.55943 169.284 6.55943C166.706 6.55943 164.105 6.51102 161.527 6.58364C160.652 6.60784 159.704 6.80148 158.95 7.21296C156.81 8.37479 155.716 10.3112 155.667 12.7074C155.594 15.6604 155.667 18.6376 155.643 21.6148C155.643 23.1397 155.959 24.5919 156.859 25.8506C157.88 27.2303 159.193 28.1742 160.992 28.1984C163.716 28.2226 166.463 28.1984 169.187 28.2226C170.354 28.2226 171.424 28.0048 172.421 27.2787C173.928 26.1652 174.949 24.7856 174.974 22.8492C175.022 21.0581 174.998 19.2669 174.998 17.4515Z" fill="white"/>
</g>
<defs>
<clipPath id="clip0_126_22">
<rect width="222" height="35" fill="white"/>
</clipPath>
</defs>
</svg>
