<svg width="136" height="136" viewBox="0 0 136 136" fill="none" xmlns="http://www.w3.org/2000/svg">
<g clip-path="url(#clip0_126_1373)">
<path d="M68 96.3335C49.249 96.3335 34 81.0845 34 62.3335C34 43.5825 49.249 28.3335 68 28.3335C86.751 28.3335 102 43.5825 102 62.3335C102 81.0845 86.751 96.3335 68 96.3335ZM68 34.0002C52.377 34.0002 39.6667 46.7105 39.6667 62.3335C39.6667 77.9565 52.377 90.6668 68 90.6668C83.623 90.6668 96.3333 77.9565 96.3333 62.3335C96.3333 46.7105 83.623 34.0002 68 34.0002Z" fill="url(#paint0_linear_126_1373)"/>
<path d="M67.9993 124.667C66.4353 124.667 65.166 123.397 65.166 121.833C65.166 120.269 66.4353 119 67.9993 119C99.2453 119 124.666 93.5793 124.666 62.3333C124.666 60.7693 125.935 59.5 127.499 59.5C129.063 59.5 130.333 60.7693 130.333 62.3333C130.333 96.7017 102.368 124.667 67.9993 124.667Z" fill="#BDBDBD"/>
<path d="M124.155 45.6167C122.982 45.6167 121.883 44.88 121.475 43.7127C113.598 20.9553 92.1048 5.66667 67.9988 5.66667C55.1014 5.66667 43.0201 9.89967 33.0524 17.901C31.8341 18.8757 30.0491 18.6887 29.0688 17.4703C28.0884 16.2463 28.2868 14.467 29.5051 13.4867C40.4871 4.66367 53.7981 0 67.9988 0C94.5188 0 118.166 16.8243 126.836 41.854C127.346 43.3387 126.564 44.948 125.085 45.4637C124.779 45.5657 124.461 45.6167 124.155 45.6167Z" fill="#BDBDBD"/>
<path d="M48.166 121.21C47.8544 121.21 47.537 121.159 47.2253 121.051C22.3713 112.336 5.66602 88.74 5.66602 62.3333C5.66602 49.7533 9.40602 37.6776 16.478 27.4096C17.362 26.112 19.1243 25.8003 20.4163 26.6786C21.7083 27.5683 22.0313 29.3306 21.1417 30.617C14.727 39.9443 11.3327 50.9093 11.3327 62.3333C11.3327 86.3373 26.5137 107.786 49.1067 115.702C50.58 116.218 51.3564 117.833 50.8407 119.312C50.4327 120.479 49.339 121.21 48.166 121.21Z" fill="#BDBDBD"/>
<path d="M76.5001 136C75.7748 136 75.0494 135.722 74.4941 135.173L63.1608 123.839C62.0558 122.734 62.0558 120.938 63.1608 119.833L74.4941 108.5C75.5991 107.395 77.3954 107.395 78.5004 108.5C79.6054 109.605 79.6054 111.401 78.5004 112.506L69.1731 121.833L78.5004 131.161C79.6054 132.266 79.6054 134.062 78.5004 135.167C77.9508 135.722 77.2254 136 76.5001 136Z" fill="#BDBDBD"/>
<path d="M23.6526 45.3336C22.4003 45.3336 21.2556 44.5006 20.9156 43.2369L17.2493 29.5519L3.56426 33.2182C2.05692 33.5979 0.498591 32.7252 0.0962572 31.2122C-0.306076 29.6992 0.589257 28.1522 2.10226 27.7442L18.5243 23.3469C20.0373 22.9672 21.5899 23.8399 21.9923 25.3472L26.3896 41.7636C26.7976 43.2822 25.8966 44.8292 24.3893 45.2372C24.1399 45.2996 23.8963 45.3336 23.6526 45.3336Z" fill="#BDBDBD"/>
<path d="M124.667 48.7218C124.185 48.7218 123.698 48.6028 123.25 48.3421L108.528 39.8421C107.174 39.0601 106.709 37.3318 107.491 35.9718C108.273 34.6175 110.001 34.1471 111.361 34.9348L123.63 42.0181L130.713 29.7498C131.495 28.3955 133.229 27.9251 134.583 28.7128C135.938 29.4948 136.402 31.2231 135.62 32.5831L127.12 47.3051C126.593 48.2118 125.641 48.7218 124.667 48.7218Z" fill="#BDBDBD"/>
<path d="M61.176 80.272V46H70.2C74.392 46 77.496 46.848 79.512 48.544C81.56 50.24 82.584 52.704 82.584 55.936C82.584 58.112 82.088 59.984 81.096 61.552C80.104 63.088 78.632 64.272 76.68 65.104C74.76 65.936 72.376 66.352 69.528 66.352H65.496V80.272H61.176ZM57 73.744V70.624H73.416V73.744H57ZM57 66.352V62.704H67.992V66.352H57ZM68.904 62.704C70.856 62.704 72.504 62.496 73.848 62.08C75.224 61.664 76.28 60.976 77.016 60.016C77.752 59.056 78.12 57.744 78.12 56.08C78.12 53.904 77.448 52.288 76.104 51.232C74.76 50.176 72.664 49.648 69.816 49.648H65.496V62.704H68.904Z" fill="url(#paint1_linear_126_1373)"/>
</g>
<defs>
<linearGradient id="paint0_linear_126_1373" x1="68" y1="28.3335" x2="68" y2="96.3335" gradientUnits="userSpaceOnUse">
<stop stop-color="#543A83"/>
<stop offset="1" stop-color="#7F62B2"/>
</linearGradient>
<linearGradient id="paint1_linear_126_1373" x1="69.792" y1="46" x2="69.792" y2="80.272" gradientUnits="userSpaceOnUse">
<stop stop-color="#543A83"/>
<stop offset="1" stop-color="#7F62B2"/>
</linearGradient>
<clipPath id="clip0_126_1373">
<rect width="136" height="136" fill="white"/>
</clipPath>
</defs>
</svg>
