<svg width="112" height="112" viewBox="0 0 112 112" fill="none" xmlns="http://www.w3.org/2000/svg">
<path d="M102.247 19.7096C93.0608 18.3967 85.7283 11.0644 84.4154 1.87797C84.2614 0.800406 83.3385 0 82.25 0H29.75C28.6615 0 27.7386 0.800406 27.5846 1.87797C26.2719 11.0642 18.9392 18.3967 9.75297 19.7096C8.67541 19.8636 7.875 20.7863 7.875 21.875V28.0284C7.875 61.6182 25.8716 95.1147 54.9148 111.712C55.251 111.904 55.6255 112 56 112C56.3745 112 56.749 111.904 57.0852 111.712C84.4955 96.0477 104.125 63.7081 104.125 28.0284V21.875C104.125 20.7863 103.325 19.8636 102.247 19.7096ZM99.75 28.0284C99.75 60.5513 82.6168 91.511 56 107.282C29.3832 91.511 12.25 60.5515 12.25 28.0284V23.7016C21.8133 21.6075 29.4494 14.0897 31.5763 4.375H80.4237C82.5175 13.9381 90.0351 21.5742 99.75 23.7016V28.0284Z" fill="#BDBDBD"/>
<path d="M74.7813 14.3172C74.4074 13.5855 73.6549 13.125 72.8333 13.125H39.1677C38.3456 13.125 37.5929 13.5857 37.2193 14.3181C33.9579 20.708 28.644 26.0326 22.257 29.311C21.4981 29.7003 21.0348 30.4955 21.0703 31.348C22.1135 56.4611 34.8627 81.8674 54.6978 96.0127C55.47 96.5856 56.5064 96.5875 57.2729 96.0435C75.677 82.9835 89.8326 58.483 90.9353 31.346C90.9698 30.494 90.5065 29.6997 89.7477 29.3105C83.3633 26.0365 78.0483 20.7121 74.7813 14.3172ZM58.188 89.8216V63.6562C58.188 62.4483 57.2086 61.4688 56.0005 61.4688C54.7923 61.4688 53.813 62.4483 53.813 63.6562V89.8236C37.7132 76.5968 26.8258 54.7006 25.5102 32.5286C31.7551 29.0205 36.9998 23.7556 40.4799 17.5H53.813V43.9688C53.813 45.1767 54.7923 46.1562 56.0005 46.1562C57.2086 46.1562 58.188 45.1767 58.188 43.9688V17.5H71.5217C75.0064 23.7597 80.2539 29.0257 86.4973 32.5303C84.987 58.9013 71.0675 79.1416 58.188 89.8216Z" fill="url(#paint0_linear_126_1391)"/>
<path d="M56 56C57.2081 56 58.1875 55.0206 58.1875 53.8125C58.1875 52.6044 57.2081 51.625 56 51.625C54.7919 51.625 53.8125 52.6044 53.8125 53.8125C53.8125 55.0206 54.7919 56 56 56Z" fill="black"/>
<defs>
<linearGradient id="paint0_linear_126_1391" x1="56.0027" y1="13.125" x2="56.0027" y2="96.447" gradientUnits="userSpaceOnUse">
<stop stop-color="#543A83"/>
<stop offset="1" stop-color="#7F62B2"/>
</linearGradient>
</defs>
</svg>
