<svg width="120" height="120" viewBox="0 0 120 120" fill="none" xmlns="http://www.w3.org/2000/svg">
<path d="M111.571 52.318C111.112 39.2286 105.811 26.9886 96.5037 17.6811C86.7481 7.92363 73.7825 2.55176 59.9975 2.55176C32.1556 2.55176 9.40625 24.7124 8.42562 52.318C4.17687 54.2061 1.20312 58.4586 1.20312 63.4011V77.0174C1.20312 83.7036 6.6425 89.1449 13.3306 89.1449C17.6581 89.1449 21.1775 85.6255 21.1775 81.298V59.1186C21.1775 55.0555 18.0612 51.7424 14.0994 51.3486C15.5619 27.298 35.5831 8.17676 59.9975 8.17676C72.2825 8.17676 83.8344 12.9655 92.5287 21.6599C100.512 29.6436 105.185 40.0499 105.888 51.3505C101.93 51.748 98.8194 55.0593 98.8194 59.1186V81.2961C98.8194 85.393 101.984 88.7268 105.993 89.0736V94.678C105.993 100.989 100.857 106.123 94.5462 106.123H86.0694C85.6531 104.934 85.0006 103.836 84.0856 102.924C82.4825 101.314 80.345 100.427 78.0687 100.427H69.3312C68.0769 100.427 66.8731 100.693 65.7706 101.207C62.7631 102.589 60.8206 105.622 60.8206 108.936C60.8206 111.212 61.7075 113.349 63.3144 114.949C64.9212 116.559 67.0587 117.446 69.3312 117.446H78.0687C81.6912 117.446 84.8844 115.104 86.075 111.748H94.5462C103.961 111.748 111.618 104.09 111.618 94.678V88.0724C115.841 86.173 118.792 81.9355 118.792 77.0136V63.3974C118.792 58.4586 115.818 54.2061 111.571 52.318ZM15.5506 59.1186V81.2961C15.5506 82.5205 14.555 83.518 13.3287 83.518C9.74375 83.518 6.82625 80.6005 6.82625 77.0155V63.3993C6.82625 59.8124 9.74375 56.8968 13.3287 56.8968C14.555 56.8968 15.5506 57.8943 15.5506 59.1186ZM80.8906 109.539C80.6113 110.863 79.4225 111.825 78.0669 111.825H69.3294C68.5606 111.825 67.8387 111.525 67.2875 110.974C66.7438 110.432 66.4437 109.708 66.4437 108.939C66.4437 107.816 67.1019 106.79 68.1331 106.316C68.5006 106.144 68.9037 106.056 69.3294 106.056H78.0669C78.8356 106.056 79.5575 106.354 80.1069 106.905C80.6506 107.447 80.9506 108.171 80.9506 108.939C80.9525 109.146 80.93 109.352 80.8906 109.539ZM113.167 77.0155C113.167 80.6005 110.249 83.518 106.664 83.518C105.44 83.518 104.442 82.5224 104.442 81.2961V59.1186C104.442 57.8943 105.438 56.8968 106.664 56.8968C110.249 56.8968 113.167 59.8143 113.167 63.3993V77.0155Z" fill="#BDBDBD"/>
<path d="M78.2084 77.9848C84.7803 77.9848 90.1259 72.6373 90.1259 66.0673V41.7842C90.1259 38.6079 88.8847 35.6154 86.6309 33.3617C84.3772 31.1079 81.3866 29.8667 78.2084 29.8667H41.7847C35.2128 29.8667 29.8672 35.2123 29.8672 41.7842V66.0673C29.8672 72.6392 35.2128 77.9848 41.7847 77.9848H42.0078V84.2773C42.0078 86.6773 43.4384 88.8073 45.6509 89.7054C46.3653 89.9923 47.1078 90.1348 47.8428 90.1348C49.3747 90.1348 50.8672 89.5273 51.9603 88.3967L62.4284 77.9848H78.2084ZM59.2878 73.1773L47.9591 84.4442C47.9084 84.4967 47.8709 84.5361 47.7641 84.4892C47.6347 84.4367 47.6347 84.3523 47.6347 84.2773V75.1723C47.6347 73.6198 46.3766 72.3598 44.8222 72.3598H41.7866C38.3159 72.3598 35.4941 69.5361 35.4941 66.0673V41.7842C35.4941 38.3136 38.3159 35.4917 41.7866 35.4917H78.2103C79.8866 35.4917 81.4634 36.1479 82.6559 37.3386C83.8484 38.5311 84.5028 40.1098 84.5028 41.7842V66.0673C84.5028 69.5379 81.6791 72.3598 78.2103 72.3598H61.2716C60.5272 72.3598 59.8147 72.6542 59.2878 73.1773Z" fill="url(#paint0_linear_126_1383)"/>
<path d="M46.3369 50.2256C44.0494 50.2256 42.1875 52.0893 42.1875 54.375C42.1875 56.6606 44.0512 58.5243 46.3369 58.5243C48.6262 58.5243 50.49 56.6606 50.49 54.375C50.49 52.0893 48.6281 50.2256 46.3369 50.2256Z" fill="#BDBDBD"/>
<path d="M59.9931 50.2256C57.7056 50.2256 55.8438 52.0893 55.8438 54.375C55.8438 56.6606 57.7075 58.5243 59.9931 58.5243C62.2844 58.5243 64.1463 56.6606 64.1463 54.375C64.1463 52.0893 62.2844 50.2256 59.9931 50.2256Z" fill="#BDBDBD"/>
<path d="M73.6572 50.2256C71.3697 50.2256 69.5078 52.0893 69.5078 54.375C69.5078 56.6606 71.3716 58.5243 73.6572 58.5243C75.9466 58.5243 77.8103 56.6606 77.8103 54.375C77.8103 52.0893 75.9466 50.2256 73.6572 50.2256Z" fill="#BDBDBD"/>
<defs>
<linearGradient id="paint0_linear_126_1383" x1="59.9966" y1="29.8667" x2="59.9966" y2="90.1348" gradientUnits="userSpaceOnUse">
<stop stop-color="#543A83"/>
<stop offset="1" stop-color="#7F62B2"/>
</linearGradient>
</defs>
</svg>
