<svg width="73" height="73" viewBox="0 0 73 73" fill="none" xmlns="http://www.w3.org/2000/svg">
<path d="M17.25 36.5C17.25 47.114 25.886 55.75 36.5 55.75C47.114 55.75 55.75 47.114 55.75 36.5C55.75 25.886 47.114 17.25 36.5 17.25C25.886 17.25 17.25 25.886 17.25 36.5ZM27.4585 22.3115L29.4076 26.2097C29.5243 26.4419 29.7132 26.632 29.9454 26.7475L33.5957 28.5726L31.0065 32.8906H26.875C26.3565 32.8906 25.8981 33.2215 25.7332 33.7136L24.8044 36.5H19.6562C19.6562 30.5409 22.776 25.3061 27.4585 22.3115ZM36.5 49.7344V53.3438C30.5975 53.3438 25.4036 50.2866 22.3958 45.6786L27.8616 43.8571L32.1687 47.0875C32.6079 47.416 33.2143 47.4075 33.6426 47.0646L38.8172 42.9247L41.3125 45.42V47.5916L37.4108 48.5673C36.8754 48.7009 36.5 49.1821 36.5 49.7344ZM53.3438 36.5C53.3438 39.1541 52.7097 41.6578 51.6113 43.8944L48.8765 41.1597L50.7354 38.3709C50.9231 38.0893 50.9844 37.7404 50.9014 37.412L49.6983 32.5995C49.6177 32.2746 49.4035 31.9979 49.11 31.8367C48.8152 31.6743 48.4675 31.6442 48.1499 31.7501L45.3634 32.6789L42.6179 29.019L43.4553 25.6719H49.3843C51.8507 28.6027 53.3438 32.3781 53.3438 36.5ZM42.5156 23.2656C41.9634 23.2656 41.4821 23.641 41.3486 24.1764L40.1455 28.9889C40.0576 29.3402 40.1334 29.7132 40.35 30.0031L43.9594 34.8156C44.2698 35.2295 44.8112 35.3991 45.3021 35.2355L47.6794 34.4427L48.4374 37.4781L46.3271 40.6448C46.0083 41.1212 46.0721 41.7577 46.4775 42.1631L50.3612 46.0468C47.7528 49.821 43.6454 52.4691 38.9062 53.1512V50.6728L42.808 49.6971C43.3434 49.5647 43.7188 49.0835 43.7188 48.5312V44.9219C43.7188 44.603 43.5924 44.2962 43.3662 44.0713L39.7569 40.4619C39.3237 40.0276 38.6331 39.9891 38.1543 40.3729L32.8666 44.603L28.8 41.5531C28.4848 41.3149 28.0733 41.2499 27.6967 41.3739L21.2155 43.5347C20.5478 42.0897 20.0834 40.5365 19.8475 38.9062H25.6719C26.1904 38.9062 26.6488 38.5754 26.8136 38.0833L27.7425 35.2969H31.6875C32.1098 35.2969 32.502 35.0755 32.7186 34.7134L36.328 28.6977C36.5012 28.4102 36.5457 28.0637 36.4519 27.7425C36.358 27.4212 36.1343 27.1529 35.8347 27.0025L31.3807 24.7755L29.5748 21.1626C31.6899 20.2037 34.03 19.6562 36.5 19.6562C40.4186 19.6562 44.0207 21.0134 46.8854 23.2656H42.5156Z" fill="url(#paint0_linear_126_81)"/>
<path d="M68.9844 32.8906C67.4179 32.8906 66.0945 33.9 65.5964 35.2969H58.1562V37.7031H65.5964C66.0945 39.1 67.4179 40.1094 68.9844 40.1094C70.9743 40.1094 72.5938 38.49 72.5938 36.5C72.5938 34.51 70.9743 32.8906 68.9844 32.8906ZM68.9844 37.7031C68.3215 37.7031 67.7812 37.1629 67.7812 36.5C67.7812 35.8371 68.3215 35.2969 68.9844 35.2969C69.6473 35.2969 70.1875 35.8371 70.1875 36.5C70.1875 37.1629 69.6473 37.7031 68.9844 37.7031Z" fill="#BDBDBD"/>
<path d="M68.9844 56.9531C68.9844 54.9632 67.365 53.3438 65.375 53.3438C63.8085 53.3438 62.4851 54.3532 61.987 55.75H60.1739L58.0696 50.4899C57.8868 50.034 57.4452 49.7344 56.9531 49.7344H53.3438V52.1406H56.1386L58.2429 57.4007C58.4257 57.8567 58.8673 58.1562 59.3594 58.1562H61.987C62.4851 59.5531 63.8085 60.5625 65.375 60.5625C67.365 60.5625 68.9844 58.9431 68.9844 56.9531ZM64.1719 56.9531C64.1719 56.2902 64.7121 55.75 65.375 55.75C66.0379 55.75 66.5781 56.2902 66.5781 56.9531C66.5781 57.616 66.0379 58.1562 65.375 58.1562C64.7121 58.1562 64.1719 57.616 64.1719 56.9531Z" fill="#BDBDBD"/>
<path d="M55.75 71.3906C57.74 71.3906 59.3594 69.7712 59.3594 67.7812C59.3594 65.7913 57.74 64.1719 55.75 64.1719C54.1835 64.1719 52.8601 65.1813 52.362 66.5781H49.4384L47.2812 59.0285C47.1344 58.5124 46.6616 58.1562 46.125 58.1562H40.1094V60.5625H45.2178L47.375 68.1121C47.5218 68.6283 47.9947 68.9844 48.5312 68.9844H52.362C52.8601 70.3812 54.1835 71.3906 55.75 71.3906ZM55.75 66.5781C56.4129 66.5781 56.9531 67.1183 56.9531 67.7812C56.9531 68.4442 56.4129 68.9844 55.75 68.9844C55.0871 68.9844 54.5469 68.4442 54.5469 67.7812C54.5469 67.1183 55.0871 66.5781 55.75 66.5781Z" fill="#BDBDBD"/>
<path d="M45.9987 14.1785L49.2748 7.62503H52.3476C52.8541 9.05675 54.2208 10.0313 55.7488 10.0313C55.9281 10.0313 56.1097 10.018 56.2926 9.99037C57.2455 9.8448 58.0853 9.33828 58.6568 8.56106C59.2282 7.78384 59.4628 6.83097 59.3185 5.8793C59.0189 3.91219 57.1781 2.55987 55.2074 2.85223C54.2545 2.99781 53.4147 3.50433 52.8433 4.28155C52.6303 4.5715 52.4811 4.89033 52.3632 5.21878H48.5313C48.0753 5.21878 47.659 5.47625 47.4545 5.88411L44.1783 12.4375H40.1094V14.8438H44.9219C45.3779 14.8438 45.7941 14.5863 45.9987 14.1785ZM54.7803 5.70845C54.9716 5.44978 55.2507 5.28014 55.5683 5.23201C55.6297 5.22239 55.6898 5.21878 55.75 5.21878C56.3347 5.21878 56.8497 5.64589 56.9399 6.24144C56.988 6.55906 56.9098 6.87669 56.7197 7.13536C56.5284 7.39403 56.2493 7.56367 55.9317 7.6118C55.2844 7.71406 54.6612 7.25928 54.5613 6.60237C54.512 6.28475 54.5902 5.96712 54.7803 5.70845Z" fill="#BDBDBD"/>
<path d="M63.1901 18.4531C63.6882 19.85 65.0117 20.8594 66.5781 20.8594C68.5681 20.8594 70.1875 19.24 70.1875 17.25C70.1875 15.26 68.5681 13.6406 66.5781 13.6406C65.0117 13.6406 63.6882 14.65 63.1901 16.0469H58.1562C57.7544 16.0469 57.379 16.2478 57.1552 16.5823L55.1063 19.6562H52.1406V22.0625H55.75C56.1518 22.0625 56.5272 21.8616 56.751 21.5271L58.7999 18.4531H63.1901ZM66.5781 16.0469C67.241 16.0469 67.7812 16.5871 67.7812 17.25C67.7812 17.9129 67.241 18.4531 66.5781 18.4531C65.9152 18.4531 65.375 17.9129 65.375 17.25C65.375 16.5871 65.9152 16.0469 66.5781 16.0469Z" fill="#BDBDBD"/>
<path d="M1.60938 30.4844C0.94525 30.4844 0.40625 31.0234 0.40625 31.6875V41.3125C0.40625 41.9766 0.94525 42.5156 1.60938 42.5156H4.57388C4.87466 44.1134 5.30056 45.6991 5.84678 47.2523L3.2757 48.7358C2.69941 49.0678 2.5033 49.8042 2.83536 50.3792L7.64786 58.7145C7.97992 59.2896 8.71263 59.4869 9.29133 59.1548L11.8672 57.6678C12.9332 58.9058 14.093 60.0668 15.331 61.1316L13.844 63.7075C13.5119 64.2838 13.7092 65.0189 14.2843 65.3509L22.6195 70.1634C23.1934 70.4943 23.9298 70.297 24.263 69.7231L25.7465 67.152C27.2985 67.6982 28.8842 68.1241 30.4832 68.4249V71.3906C30.4832 72.0547 31.0222 72.5938 31.6863 72.5938H36.4988C37.1629 72.5938 37.7019 72.0547 37.7019 71.3906V59.3594C37.7019 58.6953 37.1629 58.1562 36.4988 58.1562C24.5578 58.1562 14.8425 48.441 14.8425 36.5C14.8425 24.559 24.5578 14.8438 36.4988 14.8438C37.1629 14.8438 37.7019 14.3048 37.7019 13.6406V1.60938C37.7019 0.94525 37.1629 0.40625 36.4988 0.40625H31.6863C31.0222 0.40625 30.4832 0.94525 30.4832 1.60938V4.57388C28.8854 4.87466 27.2997 5.30056 25.7465 5.84678L24.2642 3.2757C23.931 2.69941 23.1946 2.50209 22.6208 2.83536L14.2855 7.64786C13.7092 7.97992 13.5131 8.71623 13.8452 9.29133L15.3322 11.8672C14.0942 12.9332 12.9332 14.093 11.8684 15.331L9.29133 13.8452C8.71263 13.5131 7.97992 13.7104 7.64786 14.2855L2.83536 22.6208C2.5033 23.1958 2.70061 23.9322 3.2757 24.2642L5.84678 25.7477C5.30056 27.3009 4.87466 28.8866 4.57388 30.4844H1.60938ZM6.7768 31.8716C7.10284 29.7661 7.6647 27.6715 8.44914 25.649C8.6633 25.0956 8.44312 24.4688 7.92819 24.1716L5.52194 22.782L9.13131 16.5305L11.5424 17.9225C12.0561 18.2185 12.7082 18.0958 13.08 17.6362C14.4299 15.9627 15.9627 14.4299 17.6362 13.08C18.097 12.7082 18.2185 12.0549 17.9225 11.5424L16.5305 9.13131L22.782 5.52194L24.1716 7.92819C24.4688 8.44192 25.0944 8.66089 25.6478 8.44914C27.6715 7.6647 29.7649 7.10284 31.8704 6.7768C32.4575 6.68656 32.8906 6.18125 32.8906 5.58811V2.8125H35.2969V12.4676C22.5859 13.0956 12.4375 23.635 12.4375 36.5C12.4375 49.365 22.5859 59.9044 35.2969 60.5324V70.1875H32.8906V67.4119C32.8906 66.8187 32.4575 66.3134 31.8716 66.2232C29.7661 65.8972 27.6715 65.3353 25.649 64.5509C25.0956 64.3379 24.47 64.5569 24.1716 65.0718L22.782 67.4781L16.5305 63.8687L17.9225 61.4576C18.2185 60.9439 18.097 60.2918 17.6362 59.92C15.9627 58.5701 14.4299 57.0373 13.08 55.3638C12.707 54.9018 12.0549 54.7803 11.5424 55.0775L9.13131 56.4695L5.52194 50.218L7.92819 48.8284C8.44192 48.5313 8.6633 47.9044 8.44914 47.3522C7.6647 45.3285 7.10284 43.2351 6.7768 41.1296C6.68656 40.5425 6.18125 40.1094 5.58811 40.1094H2.8125V32.8906H5.58811C6.18125 32.8906 6.68656 32.4575 6.7768 31.8716Z" fill="#BDBDBD"/>
<defs>
<linearGradient id="paint0_linear_126_81" x1="36.5" y1="17.25" x2="36.5" y2="55.75" gradientUnits="userSpaceOnUse">
<stop stop-color="#543A83"/>
<stop offset="1" stop-color="#7F62B2"/>
</linearGradient>
</defs>
</svg>
