<svg width="1259" height="254" viewBox="0 0 1259 254" fill="none" xmlns="http://www.w3.org/2000/svg">
<g clip-path="url(#clip0_331_20)">
<g filter="url(#filter0_d_331_20)">
<path fill-rule="evenodd" clip-rule="evenodd" d="M905.335 214.479C909.181 214.451 913.022 214.424 916.849 214.424L916.974 214.3C920.343 214.3 923.726 214.286 927.114 214.272C933.903 214.244 940.71 214.217 947.462 214.3C959.458 214.424 970.203 210.945 980.2 204.608C990.57 198.147 998.193 189.201 1003.69 178.515C1008.56 168.948 1009.94 158.387 1010.31 147.825C1010.54 141.114 1010.49 134.358 1010.45 127.611C1010.42 123.116 1010.39 118.625 1010.44 114.154L1010.44 113.134C1010.44 101.919 1010.45 90.7213 1006.56 80.1088C1004.44 74.3933 1001.69 68.802 998.318 63.7077C993.944 56.9982 987.947 51.4069 981.074 46.8096C973.202 41.5911 964.456 37.4908 955.084 36.9938C939.536 36.2207 923.988 36.2329 908.352 36.2452C906.396 36.2467 904.439 36.2483 902.48 36.2483C900.068 36.2775 897.649 36.2242 895.232 36.1708C887.379 35.9976 879.539 35.8246 871.991 38.4848C871.072 38.797 870.148 39.1013 869.225 39.4054C865.005 40.7956 860.791 42.1837 856.997 44.3246C848.626 48.9219 841.503 55.1344 835.755 63.0864C829.133 72.281 824.26 82.5938 824.135 93.5279C824.053 98.6018 823.904 103.682 823.755 108.766C823.227 126.841 822.697 144.975 825.135 163.108C826.259 171.06 829.508 178.143 833.506 184.728C838.255 192.432 844.377 198.644 851.999 203.738C861.246 209.951 870.992 214.175 882.237 214.424C889.906 214.59 897.63 214.534 905.335 214.479ZM966.121 118.225C966.1 120.684 966.08 123.14 966.08 125.585C966.08 127.92 966.088 130.247 966.096 132.568C966.119 139.511 966.142 146.402 965.955 153.293C965.83 163.233 960.582 170.315 952.835 176.03C947.712 179.758 942.214 180.876 936.217 180.876C929.219 180.814 922.191 180.814 915.162 180.814C908.134 180.814 901.105 180.814 894.108 180.752C884.861 180.628 878.114 175.782 872.866 168.7C868.243 162.239 866.619 154.784 866.619 146.956C866.669 140.84 866.638 134.723 866.609 128.615C866.564 119.461 866.519 110.324 866.743 101.231C866.993 88.9306 872.616 78.9906 883.612 73.0265C887.485 70.9142 892.359 69.9202 896.857 69.796C906.322 69.5296 915.851 69.5805 925.352 69.6312C929.146 69.6515 932.936 69.6717 936.716 69.6717C948.337 69.6717 959.583 77.4995 963.706 88.3094C965.08 91.9126 965.83 95.8887 965.955 99.7404C966.223 105.869 966.172 112.061 966.121 118.225ZM343.93 214.479H343.929C336.224 214.534 328.5 214.59 320.831 214.424C309.586 214.175 299.84 209.951 290.593 203.738C282.971 198.644 276.848 192.432 272.1 184.728C268.102 178.143 264.853 171.06 263.729 163.108C261.291 144.975 261.821 126.841 262.349 108.766V108.766C262.498 103.681 262.647 98.6017 262.729 93.5279C262.854 82.5938 267.727 72.281 274.349 63.0864C280.097 55.1344 287.219 48.9219 295.591 44.3246C299.385 42.1837 303.598 40.7956 307.819 39.4054C308.742 39.1013 309.666 38.797 310.585 38.4848C318.133 35.8246 325.973 35.9976 333.826 36.1708C336.243 36.2242 338.662 36.2775 341.074 36.2483C343.033 36.2483 344.99 36.2467 346.946 36.2452C362.582 36.2329 378.13 36.2207 393.678 36.9938C403.05 37.4908 411.796 41.5911 419.668 46.8096C426.54 51.4069 432.538 56.9982 436.911 63.7077C440.285 68.802 443.034 74.3933 445.158 80.1088C449.039 90.7212 449.035 101.919 449.032 113.134V113.134L449.032 114.154C448.982 118.625 449.012 123.116 449.042 127.612C449.087 134.358 449.132 141.114 448.907 147.825C448.532 158.387 447.157 168.948 442.284 178.515C436.786 189.201 429.164 198.147 418.793 204.608C408.797 210.945 398.051 214.424 386.056 214.3C379.304 214.217 372.497 214.244 365.707 214.272C362.32 214.286 358.937 214.3 355.568 214.3L355.443 214.424C351.616 214.424 347.775 214.451 343.93 214.479ZM404.715 118.227V118.225C404.766 112.06 404.817 105.869 404.549 99.7404C404.424 95.8887 403.674 91.9126 402.3 88.3094C398.176 77.4995 386.931 69.6717 375.31 69.6717C371.531 69.6717 367.741 69.6515 363.946 69.6312H363.946C354.445 69.5805 344.916 69.5296 335.451 69.796C330.952 69.9202 326.079 70.9142 322.206 73.0265C311.21 78.9906 305.587 88.9306 305.337 101.231C305.113 110.324 305.157 119.46 305.202 128.615C305.232 134.723 305.262 140.84 305.212 146.956C305.212 154.784 306.837 162.239 311.46 168.7C316.708 175.782 323.455 180.628 332.702 180.752C339.699 180.814 346.728 180.814 353.756 180.814C360.785 180.814 367.813 180.814 374.81 180.876C380.808 180.876 386.306 179.758 391.429 176.03C399.176 170.315 404.424 163.233 404.549 153.293C404.736 146.402 404.713 139.512 404.69 132.569C404.682 130.248 404.674 127.92 404.674 125.585C404.674 123.14 404.694 120.686 404.715 118.227ZM1073.92 94.5222V214.424H1026.43V36.7456H1094.28L1158.88 157.89V36.7456H1207.61V214.424H1139.02L1073.92 94.5222ZM511.632 214.424V94.5223L576.607 214.424H645.33V36.7457H596.599V157.89L531.874 36.7457H464.15V214.424H511.632ZM115.536 37.9876H66.8047V215.666H115.536V142.358H198.004V215.666H246.735V39.2302H198.004V105.083H115.536V37.9876ZM664.072 215.667V37.9882H713.053L712.678 119.497L784.026 36.7457L835.756 36.9942L757.786 126.206L836.006 215.667H784.276L711.554 132.295V215.667H664.072Z" fill="white" fill-opacity="0.02" shape-rendering="crispEdges"/>
</g>
</g>
<defs>
<filter id="filter0_d_331_20" x="5.80469" y="-24.9148" width="1262.81" height="301.582" filterUnits="userSpaceOnUse" color-interpolation-filters="sRGB">
<feFlood flood-opacity="0" result="BackgroundImageFix"/>
<feColorMatrix in="SourceAlpha" type="matrix" values="0 0 0 0 0 0 0 0 0 0 0 0 0 0 0 0 0 0 127 0" result="hardAlpha"/>
<feOffset/>
<feGaussianBlur stdDeviation="30.5"/>
<feComposite in2="hardAlpha" operator="out"/>
<feColorMatrix type="matrix" values="0 0 0 0 0 0 0 0 0 0 0 0 0 0 0 0 0 0 0.05 0"/>
<feBlend mode="normal" in2="BackgroundImageFix" result="effect1_dropShadow_331_20"/>
<feBlend mode="normal" in="SourceGraphic" in2="effect1_dropShadow_331_20" result="shape"/>
</filter>
<clipPath id="clip0_331_20">
<rect width="1259" height="254" fill="white"/>
</clipPath>
</defs>
</svg>
