<svg width="22" height="22" viewBox="0 0 22 22" fill="none" xmlns="http://www.w3.org/2000/svg">
<g clip-path="url(#clip0_185_13)">
<path d="M0.736328 21.2182L2.22538 15.9111C1.3099 14.3524 0.829632 12.5872 0.832433 10.7913C0.821433 5.12998 5.51149 0.531982 11.2761 0.531982C14.073 0.531982 16.6996 1.59532 18.6779 3.5347C20.6562 5.47409 21.7405 8.04921 21.7405 10.7913C21.7405 16.4425 17.0511 21.0411 11.2865 21.0411C9.53859 21.0433 7.81877 20.6127 6.28843 19.7899L0.736328 21.2182ZM6.53333 17.9441L6.85233 18.132C8.19052 18.9087 9.71899 19.3193 11.2766 19.3205C16.0622 19.3205 19.9655 15.4937 19.9655 10.802C19.9655 8.5287 19.0617 6.38116 17.4239 4.77516C15.7849 3.17029 13.5942 2.27337 11.2755 2.27337C6.47891 2.27337 2.57564 6.10024 2.57564 10.7919C2.57564 12.3979 3.03301 13.9723 3.90549 15.3273L4.10754 15.6511L3.22464 18.7999L6.53217 17.9447L6.53333 17.9441Z" fill="white"/>
<path d="M1.0918 20.8634L2.52759 15.734C1.64224 14.2296 1.17658 12.5255 1.1769 10.7913C1.1769 5.33872 5.70774 0.896973 11.2697 0.896973C13.9711 0.896973 16.5022 1.92928 18.4162 3.79533C19.3568 4.71484 20.1021 5.80604 20.6095 7.00649C21.1168 8.20694 21.3762 9.49309 21.3729 10.7913C21.3729 16.2445 16.8426 20.6863 11.2801 20.6863C9.58959 20.6863 7.93032 20.2688 6.45169 19.4768L1.0918 20.8634Z" fill="url(#paint0_linear_185_13)"/>
<path d="M0.736328 21.2182L2.22538 15.9111C1.3099 14.3524 0.829632 12.5872 0.832433 10.7913C0.821433 5.12998 5.51149 0.531982 11.2761 0.531982C14.073 0.531982 16.6996 1.59532 18.6779 3.5347C20.6562 5.47409 21.7405 8.04921 21.7405 10.7913C21.7405 16.4425 17.0511 21.0411 11.2865 21.0411C9.53859 21.0433 7.81877 20.6127 6.28843 19.7899L0.736328 21.2182ZM6.53333 17.9441L6.85233 18.132C8.19052 18.9087 9.71899 19.3193 11.2766 19.3205C16.0622 19.3205 19.9655 15.4937 19.9655 10.802C19.9655 8.5287 19.0617 6.38116 17.4239 4.77516C15.7849 3.17029 13.5942 2.27337 11.2755 2.27337C6.47891 2.27337 2.57564 6.10024 2.57564 10.7919C2.57564 12.3979 3.03301 13.9723 3.90549 15.3273L4.10754 15.6511L3.22464 18.7999L6.53217 17.9447L6.53333 17.9441Z" fill="url(#paint1_linear_185_13)"/>
<path fill-rule="evenodd" clip-rule="evenodd" d="M8.66687 6.49558C8.47582 6.06799 8.26276 6.05784 8.08213 6.05784C7.92234 6.04712 7.75213 6.04712 7.5715 6.04712C7.40129 6.04712 7.11413 6.10973 6.86981 6.37035C6.62492 6.63097 5.95508 7.2464 5.95508 8.5083C5.95508 9.76963 6.89124 10.9898 7.0186 11.1562C7.14597 11.3232 8.82666 13.9925 11.4852 15.0248C13.6973 15.8794 14.1443 15.713 14.6231 15.6606C15.1013 15.6087 16.1648 15.0457 16.3883 14.4404C16.6008 13.8464 16.6008 13.3252 16.5371 13.2208C16.4734 13.1165 16.2922 13.0538 16.0369 12.9185C15.7711 12.7932 14.4951 12.1682 14.2502 12.0841C14.0059 12.0007 13.8357 11.9589 13.6655 12.2094C13.4953 12.47 12.9957 13.0437 12.8359 13.2101C12.6871 13.3771 12.5279 13.3979 12.2726 13.2727C12.0062 13.148 11.1668 12.8767 10.1663 12.0007C9.39055 11.3232 8.8695 10.4787 8.70971 10.2282C8.56092 9.96763 8.68829 9.83225 8.82666 9.70702C8.9436 9.5925 9.09297 9.40466 9.22034 9.25856C9.34771 9.11245 9.38997 8.99794 9.48608 8.83097C9.57118 8.66455 9.52834 8.50773 9.46466 8.38307C9.40097 8.26799 8.90076 7.00666 8.66687 6.49558Z" fill="white"/>
</g>
<defs>
<linearGradient id="paint0_linear_185_13" x1="11.2303" y1="20.8623" x2="11.2303" y2="0.893023" gradientUnits="userSpaceOnUse">
<stop stop-color="#20B038"/>
<stop offset="1" stop-color="#60D66A"/>
</linearGradient>
<linearGradient id="paint1_linear_185_13" x1="11.2367" y1="21.2204" x2="11.2367" y2="0.534803" gradientUnits="userSpaceOnUse">
<stop stop-color="#F9F9F9"/>
<stop offset="1" stop-color="white"/>
</linearGradient>
<clipPath id="clip0_185_13">
<rect width="22" height="22" fill="white"/>
</clipPath>
</defs>
</svg>
